<svg width="100" height="100" viewBox="0 0 100 100" fill="none" xmlns="http://www.w3.org/2000/svg">
<path d="M29.6337 46.1949C29.1749 45.5959 28.4974 45.203 27.7495 45.1022C27.0017 45.0015 26.2444 45.2011 25.6433 45.6574C25.2897 45.9362 25.0045 46.2922 24.8094 46.698L0.308777 95.7132C-0.0382351 96.4078 -0.0952331 97.2118 0.150312 97.9484C0.395856 98.685 0.923849 99.294 1.61823 99.6415C2.02412 99.8468 2.47284 99.9531 2.92769 99.9517H37.0632C37.6099 99.9656 38.1489 99.8199 38.614 99.5322C39.0792 99.2445 39.4504 98.8275 39.6821 98.3321C47.0495 83.1148 42.5836 59.9787 29.6337 46.1949Z" fill="url(#paint0_linear_790_271)"/>
<path d="M47.6423 1.59048C41.5345 10.9893 37.975 21.8144 37.3129 33.0039C36.6508 44.1933 38.9088 55.3627 43.8655 65.4162L60.3234 98.3319C60.5665 98.8184 60.9403 99.2276 61.4029 99.5136C61.8654 99.7997 62.3985 99.9513 62.9423 99.9515H97.071C97.4559 99.9524 97.8372 99.8773 98.193 99.7304C98.5487 99.5835 98.872 99.3678 99.1442 99.0956C99.4163 98.8234 99.6321 98.5002 99.7789 98.1444C99.9258 97.7886 100.001 97.4073 100 97.0224C100 96.5685 99.8966 96.1206 99.6968 95.713L52.6251 1.5767C52.4017 1.10499 52.049 0.706403 51.6079 0.427288C51.1669 0.148173 50.6557 0 50.1337 0C49.6118 0 49.1006 0.148173 48.6595 0.427288C48.2185 0.706403 47.8657 1.10499 47.6423 1.5767V1.59048Z" fill="#2684FF"/>
<defs>
<linearGradient id="paint0_linear_790_271" x1="43.1211" y1="53.6864" x2="17.249" y2="98.4974" gradientUnits="userSpaceOnUse">
<stop stop-color="#0052CC"/>
<stop offset="0.92" stop-color="#2684FF"/>
</linearGradient>
</defs>
</svg>
