<svg width="100" height="60" viewBox="0 0 100 60" fill="none" xmlns="http://www.w3.org/2000/svg">
<path d="M28.1812 21.7181C28.1812 22.9487 28.3143 23.9465 28.5471 24.6782C28.8132 25.4099 29.1458 26.2081 29.6114 27.0728C29.7777 27.3389 29.8442 27.605 29.8442 27.8378C29.8442 28.1704 29.6446 28.503 29.2123 28.8355L27.117 30.2324C26.8176 30.432 26.5183 30.5317 26.2522 30.5317C25.9196 30.5317 25.587 30.3655 25.2545 30.0661C24.7888 29.5672 24.3897 29.0351 24.0571 28.503C23.7245 27.9375 23.392 27.3056 23.0261 26.5407C20.4319 29.6005 17.1725 31.1304 13.248 31.1304C10.4542 31.1304 8.22586 30.3322 6.59617 28.7358C4.96648 27.1393 4.13501 25.0108 4.13501 22.35C4.13501 19.523 5.13278 17.2282 7.16158 15.4987C9.19037 13.7692 11.8844 12.9045 15.31 12.9045C16.4408 12.9045 17.6049 13.0043 18.8355 13.1706C20.0661 13.3369 21.3299 13.6029 22.6603 13.9023V11.4743C22.6603 8.94667 22.1281 7.18394 21.0971 6.15291C20.0328 5.12188 18.2368 4.623 15.6759 4.623C14.5118 4.623 13.3145 4.75603 12.0839 5.05537C10.8533 5.3547 9.656 5.72055 8.49194 6.18617C7.95979 6.41898 7.56068 6.55202 7.32787 6.61854C7.09506 6.68506 6.92876 6.71831 6.79573 6.71831C6.3301 6.71831 6.09729 6.38573 6.09729 5.68729V4.0576C6.09729 3.52545 6.16381 3.12634 6.3301 2.89353C6.4964 2.66072 6.79573 2.42791 7.26135 2.19509C8.42542 1.59643 9.82229 1.09755 11.452 0.698439C13.0817 0.266072 14.8111 0.0665179 16.6404 0.0665179C20.5982 0.0665179 23.4917 0.96451 25.3542 2.7605C27.1835 4.55648 28.1147 7.28372 28.1147 10.9422V21.7181H28.1812ZM14.6781 26.7735C15.7757 26.7735 16.9065 26.5739 18.1038 26.1748C19.3011 25.7757 20.3654 25.044 21.2634 24.0462C21.7955 23.4143 22.1946 22.7159 22.3942 21.9177C22.5937 21.1195 22.7268 20.1549 22.7268 19.0241V17.6273C21.7623 17.3944 20.7312 17.1949 19.667 17.0619C18.6027 16.9288 17.5716 16.8623 16.5406 16.8623C14.3123 16.8623 12.6826 17.2947 11.585 18.1927C10.4875 19.0907 9.95533 20.3545 9.95533 22.0174C9.95533 23.5806 10.3544 24.7447 11.1859 25.5429C11.9841 26.3744 13.1482 26.7735 14.6781 26.7735ZM41.3851 30.3655C40.7864 30.3655 40.3873 30.2657 40.1212 30.0329C39.8551 29.8333 39.6223 29.3677 39.4228 28.7358L31.6069 3.02657C31.4074 2.36139 31.3076 1.92902 31.3076 1.69621C31.3076 1.16406 31.5737 0.864734 32.1058 0.864734H35.3652C35.9971 0.864734 36.4295 0.964511 36.6623 1.19732C36.9284 1.39688 37.1279 1.8625 37.3275 2.49442L42.915 24.5119L48.1034 2.49442C48.2697 1.82924 48.4692 1.39688 48.7353 1.19732C49.0014 0.997769 49.467 0.864734 50.0657 0.864734H52.7264C53.3583 0.864734 53.7907 0.964511 54.0567 1.19732C54.3228 1.39688 54.5556 1.8625 54.6887 2.49442L59.9436 24.7779L65.6974 2.49442C65.8969 1.82924 66.1297 1.39688 66.3625 1.19732C66.6286 0.997769 67.061 0.864734 67.6597 0.864734H70.7527C71.2849 0.864734 71.5842 1.13081 71.5842 1.69621C71.5842 1.8625 71.5509 2.0288 71.5177 2.22835C71.4844 2.42791 71.4179 2.69398 71.2849 3.05983L63.2695 28.769C63.0699 29.4342 62.8371 29.8666 62.571 30.0661C62.305 30.2657 61.8726 30.3987 61.3072 30.3987H58.4469C57.815 30.3987 57.3826 30.2989 57.1166 30.0661C56.8505 29.8333 56.6177 29.4009 56.4846 28.7358L51.3295 7.28372L46.2076 28.7025C46.0413 29.3677 45.8418 29.8001 45.5757 30.0329C45.3096 30.2657 44.844 30.3655 44.2453 30.3655H41.3851ZM84.1228 31.2634C82.3934 31.2634 80.6639 31.0639 79.001 30.6648C77.338 30.2657 76.0409 29.8333 75.1762 29.3344C74.644 29.0351 74.2782 28.7025 74.1451 28.4032C74.0121 28.1038 73.9456 27.7712 73.9456 27.4719V25.7757C73.9456 25.0773 74.2117 24.7447 74.7106 24.7447C74.9101 24.7447 75.1097 24.7779 75.3092 24.8445C75.5088 24.911 75.8081 25.044 76.1407 25.1771C77.2715 25.6759 78.5021 26.075 79.7992 26.3411C81.1295 26.6072 82.4266 26.7402 83.757 26.7402C85.8523 26.7402 87.482 26.3744 88.6128 25.6427C89.7436 24.911 90.3423 23.8467 90.3423 22.4831C90.3423 21.5518 90.0429 20.7869 89.4443 20.1549C88.8456 19.523 87.7148 18.9576 86.0851 18.4255L81.2626 16.9288C78.8347 16.1639 77.0387 15.0331 75.9411 13.5364C74.8436 12.073 74.2782 10.4433 74.2782 8.71385C74.2782 7.31698 74.5775 6.08639 75.1762 5.02211C75.7748 3.95782 76.5731 3.02657 77.5708 2.29487C78.5686 1.52991 79.6994 0.964511 81.0298 0.565403C82.3601 0.166295 83.757 0 85.2204 0C85.9521 0 86.717 0.033259 87.4487 0.133036C88.2137 0.232813 88.9121 0.365849 89.6106 0.498885C90.2758 0.66518 90.9077 0.831475 91.5063 1.03103C92.105 1.23058 92.5706 1.43014 92.9032 1.62969C93.3688 1.89576 93.7014 2.16183 93.901 2.46116C94.1005 2.72724 94.2003 3.09309 94.2003 3.55871V5.12188C94.2003 5.82032 93.9342 6.18617 93.4354 6.18617C93.1693 6.18617 92.7369 6.05313 92.1715 5.78706C90.2757 4.92233 88.1472 4.48996 85.7858 4.48996C83.89 4.48996 82.3934 4.78929 81.3624 5.42121C80.3313 6.05313 79.7992 7.01765 79.7992 8.38126C79.7992 9.31252 80.1318 10.1107 80.7969 10.7427C81.4621 11.3746 82.6927 12.0065 84.4554 12.5719L89.1782 14.0686C91.5728 14.8335 93.3023 15.8978 94.3333 17.2614C95.3644 18.625 95.8633 20.1882 95.8633 21.9177C95.8633 23.3478 95.5639 24.6449 94.9985 25.7757C94.3999 26.9065 93.6016 27.9043 92.5706 28.7025C91.5396 29.534 90.309 30.1326 88.8789 30.565C87.3822 31.0306 85.8191 31.2634 84.1228 31.2634Z" fill="#252F3E"/>
<path fill-rule="evenodd" clip-rule="evenodd" d="M90.4087 47.4272C79.4665 55.5091 63.5687 59.7996 49.8993 59.7996C30.7422 59.7996 13.4808 52.7154 0.443259 40.9417C-0.587768 40.0104 0.343482 38.7466 1.57406 39.4783C15.6759 47.66 33.0703 52.6156 51.0634 52.6156C63.2029 52.6156 76.5397 50.0879 88.8123 44.8995C90.6415 44.068 92.2047 46.0968 90.4087 47.4272Z" fill="#FF9900"/>
<path fill-rule="evenodd" clip-rule="evenodd" d="M94.9652 42.2388C93.5684 40.4428 85.7193 41.3741 82.1606 41.8064C81.0963 41.9395 80.93 41.0082 81.8945 40.3098C88.1472 35.9196 98.4241 37.1834 99.6214 38.6468C100.819 40.1435 99.2889 50.4205 93.4353 55.3428C92.5373 56.1078 91.6726 55.7087 92.0717 54.7109C93.4021 51.4183 96.3621 44.0015 94.9652 42.2388Z" fill="#FF9900"/>
</svg>
