<svg width="100" height="90" viewBox="0 0 100 90" fill="none" xmlns="http://www.w3.org/2000/svg">
<path d="M3.24557 0.000267855C2.77793 -0.0057791 2.31464 0.0906255 1.88823 0.282711C1.46182 0.474797 1.08263 0.757906 0.777295 1.11216C0.471961 1.46641 0.247883 1.88321 0.120799 2.33329C-0.00628458 2.78336 -0.0332933 3.25581 0.04167 3.71744L13.6428 86.2847C13.8122 87.2951 14.3323 88.2135 15.1116 88.8786C15.8909 89.5437 16.8796 89.9129 17.9041 89.9214H83.1539C83.9218 89.9311 84.6677 89.6648 85.2557 89.1708C85.8436 88.6768 86.2346 87.988 86.3574 87.23L99.9589 3.73345C100.034 3.27185 100.007 2.79946 99.8795 2.34945C99.7523 1.89944 99.5282 1.48272 99.2228 1.12855C98.9175 0.774385 98.5383 0.491357 98.1119 0.299342C97.6855 0.107327 97.2222 0.0109797 96.7546 0.0170647L3.24557 0.000267855ZM60.5173 59.675H39.6912L34.0521 30.2142H65.5637L60.5173 59.675Z" fill="#2684FF"/>
<path d="M95.5507 30.1729H65.5055L60.4629 59.6102H39.6536L15.0826 88.7754C15.8614 89.4487 16.8543 89.8231 17.8838 89.8316H83.0976C83.865 89.8415 84.6103 89.5754 85.198 89.0819C85.7856 88.5883 86.1764 87.9001 86.2992 87.1426L95.5507 30.1729Z" fill="url(#paint0_linear_790_330)"/>
<defs>
<linearGradient id="paint0_linear_790_330" x1="102.497" y1="38.4165" x2="67.7905" y2="87.6965" gradientUnits="userSpaceOnUse">
<stop offset="0.18" stop-color="#0052CC"/>
<stop offset="1" stop-color="#2684FF"/>
</linearGradient>
</defs>
</svg>
