<svg width="512" height="512" viewBox="0 0 512 512" fill="none" xmlns="http://www.w3.org/2000/svg">
<path d="M106.344 52C77.1298 52 55.5129 77.5696 56.4805 105.3C57.4091 131.941 56.2029 166.445 47.5162 194.583C38.8035 222.804 24.0683 240.681 0 242.976V268.888C24.0683 271.184 38.8035 289.06 47.5162 317.281C56.2029 345.419 57.4091 379.923 56.4805 406.564C55.5129 434.29 77.1298 459.864 106.348 459.864H405.695C434.909 459.864 456.522 434.295 455.554 406.564C454.626 379.923 455.832 345.419 464.518 317.281C473.236 289.06 487.932 271.184 512 268.888V242.976C487.932 240.681 473.236 222.804 464.518 194.583C455.832 166.449 454.626 131.941 455.554 105.3C456.522 77.574 434.909 52 405.695 52H106.34H106.344ZM347.119 303.067C347.119 341.25 318.638 364.407 271.373 364.407H190.915C186.123 364.407 182.237 360.522 182.237 355.729V156.136C182.237 151.343 186.123 147.458 190.915 147.458H270.913C310.324 147.458 336.189 168.805 336.189 201.582C336.189 224.587 318.789 245.185 296.622 248.79V249.992C326.799 253.303 347.119 274.199 347.119 303.067ZM262.6 174.967H216.724V239.765H255.362C285.232 239.765 301.703 227.737 301.703 206.238C301.703 186.092 287.54 174.967 262.6 174.967ZM216.724 265.478V336.889H264.287C295.385 336.889 311.86 324.41 311.86 300.958C311.86 277.501 294.925 265.474 262.287 265.474H216.724V265.478Z" fill="#7E13F8"/>
<path d="M347.119 303.067C347.119 341.25 318.638 364.407 271.373 364.407H190.915C186.123 364.407 182.237 360.522 182.237 355.729V156.136C182.237 151.343 186.123 147.458 190.915 147.458H270.913C310.324 147.458 336.189 168.805 336.189 201.582C336.189 224.587 318.789 245.185 296.622 248.79V249.992C326.799 253.303 347.119 274.199 347.119 303.067ZM262.6 174.967H216.724V239.765H255.362C285.232 239.765 301.703 227.738 301.703 206.238C301.703 186.092 287.54 174.967 262.6 174.967ZM216.724 265.478V336.889H264.287C295.385 336.889 311.86 324.41 311.86 300.958C311.86 277.501 294.925 265.474 262.287 265.474H216.724V265.478Z" fill="white"/>
</svg>
