<svg width="100" height="100" viewBox="0 0 100 100" fill="none" xmlns="http://www.w3.org/2000/svg">
<path d="M33.3334 100.001C42.5334 100.001 50.0001 92.5339 50.0001 83.3339V66.6672H33.3334C24.1334 66.6672 16.6667 74.1339 16.6667 83.3339C16.6667 92.5339 24.1334 100.001 33.3334 100.001Z" fill="#0ACF83"/>
<path d="M16.6667 50.0004C16.6667 40.8004 24.1334 33.3337 33.3334 33.3337H50.0001V66.667H33.3334C24.1334 66.667 16.6667 59.2004 16.6667 50.0004Z" fill="#A259FF"/>
<path d="M16.6667 16.6671C16.6667 7.46715 24.1334 0.000488281 33.3334 0.000488281H50.0001V33.3338H33.3334C24.1334 33.3338 16.6667 25.8671 16.6667 16.6671Z" fill="#F24E1E"/>
<path d="M50 0.000488281H66.6667C75.8667 0.000488281 83.3334 7.46715 83.3334 16.6671C83.3334 25.8671 75.8667 33.3338 66.6667 33.3338H50V0.000488281Z" fill="#FF7262"/>
<path d="M83.3334 50.0004C83.3334 59.2004 75.8667 66.667 66.6667 66.667C57.4667 66.667 50 59.2004 50 50.0004C50 40.8004 57.4667 33.3337 66.6667 33.3337C75.8667 33.3337 83.3334 40.8004 83.3334 50.0004Z" fill="#1ABCFE"/>
</svg>
