<svg width="100" height="98" viewBox="0 0 100 98" fill="none" xmlns="http://www.w3.org/2000/svg">
<path d="M50 0.000488281C22.3892 0.000488281 -0.000244141 22.386 -0.000244141 50.0007C-0.000244141 72.0924 14.3263 90.8345 34.1931 97.4461C36.6918 97.9088 37.6094 96.3614 37.6094 95.0406C37.6094 93.8485 37.5627 89.9095 37.5416 85.7316C23.6311 88.7562 20.6959 79.8322 20.6959 79.8322C18.4215 74.0528 15.1443 72.5163 15.1443 72.5163C10.608 69.4129 15.4863 69.4765 15.4863 69.4765C20.5073 69.8294 23.1511 74.6292 23.1511 74.6292C27.6105 82.2733 34.8479 80.0631 37.7012 78.7859C38.1498 75.5539 39.4458 73.3485 40.8756 72.0999C29.7701 70.8352 18.0952 66.5479 18.0952 47.3894C18.0952 41.9308 20.0485 37.4701 23.2472 33.9687C22.728 32.7091 21.0167 27.6238 23.7315 20.7366C23.7315 20.7366 27.9301 19.3927 37.4851 25.8619C41.4732 24.7537 45.7507 24.1985 50 24.1796C54.2492 24.1985 58.5298 24.7537 62.5258 25.8619C72.0694 19.3927 76.2622 20.7366 76.2622 20.7366C78.9836 27.6238 77.2715 32.7091 76.7523 33.9687C79.9581 37.4701 81.898 41.9304 81.898 47.3894C81.898 66.5934 70.2012 70.8223 59.0675 72.0599C60.8607 73.6116 62.4587 76.6546 62.4587 81.3192C62.4587 88.0091 62.4007 93.3936 62.4007 95.0406C62.4007 96.3712 63.3007 97.9304 65.8355 97.4394C85.6912 90.8204 99.9998 72.085 99.9998 50.0007C99.9998 22.386 77.6135 0.000488281 50 0.000488281Z" fill="#161614"/>
<path d="M18.7264 71.227C18.6166 71.4752 18.2252 71.5498 17.8696 71.3796C17.5068 71.2164 17.3029 70.8776 17.4206 70.6282C17.5284 70.3725 17.9198 70.3012 18.2817 70.4729C18.6452 70.6357 18.8523 70.9776 18.7264 71.227ZM21.1859 73.4215C20.9475 73.6426 20.4812 73.5399 20.1648 73.1905C19.8377 72.8419 19.7766 72.376 20.0185 72.1513C20.2644 71.9305 20.7165 72.0337 21.0444 72.3827C21.3714 72.7352 21.4349 73.1983 21.1855 73.4218L21.1859 73.4215ZM22.8733 76.2292C22.5667 76.4421 22.0655 76.2425 21.7561 75.7978C21.4498 75.3535 21.4498 74.8202 21.7628 74.6065C22.0733 74.3928 22.5667 74.5849 22.8804 75.0261C23.1862 75.4782 23.1862 76.0116 22.8729 76.2296L22.8733 76.2292ZM25.7266 79.4812C25.4524 79.7832 24.8689 79.7024 24.4415 79.2899C24.0047 78.8868 23.8827 78.3146 24.1576 78.0123C24.4348 77.7095 25.0219 77.7946 25.4524 78.2036C25.8865 78.606 26.0191 79.1824 25.7269 79.4812H25.7266ZM29.4143 80.5792C29.2939 80.9706 28.7316 81.1486 28.1653 80.9824C27.5998 80.811 27.2296 80.3522 27.3438 79.9565C27.4614 79.5624 28.0261 79.3769 28.5967 79.555C29.1613 79.7255 29.5323 80.1808 29.4147 80.5792H29.4143ZM33.6118 81.0447C33.6259 81.4573 33.1455 81.7992 32.551 81.8067C31.953 81.8196 31.4695 81.4859 31.4632 81.0804C31.4632 80.6639 31.9326 80.3251 32.5302 80.3153C33.1247 80.3036 33.6118 80.6349 33.6118 81.0447ZM37.7348 80.8867C37.8061 81.289 37.3928 81.7023 36.8027 81.8121C36.2223 81.918 35.685 81.6698 35.6109 81.271C35.5388 80.8584 35.9599 80.4455 36.5391 80.3385C37.1305 80.2357 37.6595 80.4777 37.7348 80.8867Z" fill="#161614"/>
</svg>
