<svg width="100" height="100" viewBox="0 0 100 100" fill="none" xmlns="http://www.w3.org/2000/svg">
<path d="M95.8225 0.000488281H47.6677C47.6677 5.76573 49.958 11.2948 54.0346 15.3715C58.1112 19.4481 63.6403 21.7383 69.4055 21.7383H78.2762V30.3031C78.284 42.2977 88.0054 52.0195 99.9999 52.0273V4.17792C99.9999 1.87144 98.1301 0.000488281 95.8225 0.000488281Z" fill="#2684FF"/>
<path d="M71.9957 23.9944H23.8412C23.8486 35.9889 33.57 45.7107 45.565 45.7185H54.4356V54.3107C54.4509 66.3052 64.179 76.0203 76.1735 76.0203V28.1726C76.1735 25.8653 74.303 23.9948 71.9957 23.9948V23.9944Z" fill="url(#paint0_linear_790_1049)"/>
<path d="M48.1548 47.9744H0C0 59.9799 9.73272 69.7122 21.7378 69.7122H30.6363V78.2767C30.6442 90.2603 40.3487 99.9777 52.3326 100V52.1522C52.3326 49.8449 50.4621 47.9744 48.1548 47.9744Z" fill="url(#paint1_linear_790_1049)"/>
<defs>
<linearGradient id="paint0_linear_790_1049" x1="75.1431" y1="24.0781" x2="54.7833" y2="45.3227" gradientUnits="userSpaceOnUse">
<stop offset="0.18" stop-color="#0052CC"/>
<stop offset="1" stop-color="#2684FF"/>
</linearGradient>
<linearGradient id="paint1_linear_790_1049" x1="52.6807" y1="48.2111" x2="29.1294" y2="71.3824" gradientUnits="userSpaceOnUse">
<stop offset="0.18" stop-color="#0052CC"/>
<stop offset="1" stop-color="#2684FF"/>
</linearGradient>
</defs>
</svg>
