<svg width="100" height="96" viewBox="0 0 100 96" fill="none" xmlns="http://www.w3.org/2000/svg">
<path d="M5.85743 66.0263C5.95326 66.243 6.06159 66.443 6.17826 66.643C6.23243 66.7597 6.30743 66.8805 6.3741 66.9888C6.48243 67.2055 6.5991 67.4139 6.7116 67.6222L7.36577 68.7222C7.48661 68.9264 7.60328 69.1264 7.74078 69.3264C7.96995 69.718 8.24078 70.1014 8.47829 70.493C8.58662 70.6555 8.68662 70.8181 8.80746 70.9806C9.26579 71.6931 9.68247 72.2847 10.1283 72.8597C10.445 73.2889 10.7616 73.7097 11.1033 74.1306C11.2158 74.2889 11.3408 74.4473 11.4575 74.6056L12.3783 75.7223C12.4908 75.8514 12.6033 76.0014 12.7242 76.1348C13.1325 76.6264 13.5658 77.1014 13.9992 77.5848C13.9992 77.5931 14.0117 77.6015 14.02 77.614C14.5575 78.289 15.1367 78.889 15.77 79.4223L15.7867 79.439C16.12 79.7806 16.4534 80.1181 16.8075 80.4515L17.2284 80.8556C17.6909 81.289 18.1534 81.7181 18.6409 82.1348C18.6492 82.1348 18.6534 82.1432 18.6617 82.1473L18.8992 82.3557C19.3242 82.7265 19.7534 83.0932 20.1909 83.4348L20.7118 83.8723C21.0659 84.1557 21.4326 84.4223 21.7951 84.7015L22.3618 85.1348C22.7493 85.4265 23.1618 85.7099 23.5576 85.9932C23.7034 86.0974 23.8493 86.2015 23.9993 86.2974L24.1201 86.3932L25.291 87.1599L25.791 87.4932C26.4035 87.8849 27.0118 88.2515 27.6202 88.6182C27.7952 88.7057 27.9702 88.8016 28.1327 88.9016C28.5827 89.1599 29.0493 89.4224 29.5035 89.6599C29.7535 89.8016 30.0119 89.9224 30.2702 90.0516C30.5827 90.2266 30.9077 90.3974 31.241 90.5724C31.3327 90.6016 31.4077 90.6307 31.4827 90.6724L31.4994 90.6557C31.6369 90.7182 31.766 90.7849 31.8994 90.8516C32.3994 91.1016 32.9202 91.3391 33.4619 91.5724C33.5619 91.6141 33.6702 91.6557 33.7786 91.7141C34.3786 91.9766 34.9786 92.2266 35.5994 92.4682C35.7411 92.5099 35.8911 92.5807 36.0369 92.6349C36.5994 92.8474 37.1786 93.0641 37.7536 93.2683L37.9619 93.3433C38.5994 93.5599 39.2286 93.7683 39.8786 93.9641C40.0286 94.0058 40.1828 94.0599 40.3411 94.1016C41.0036 94.3016 41.6453 94.5391 42.3162 94.6641C85.1208 102.427 97.5584 69.0555 97.5584 69.0555C87.1083 82.5973 68.5623 86.1682 50.9996 82.1932C50.3496 82.0432 49.6996 81.8348 49.0412 81.6432C48.112 81.3802 47.1908 81.0898 46.2787 80.7723L46.6745 80.8931L46.4162 80.7931C45.8495 80.6015 45.3037 80.389 44.7495 80.1765C44.6139 80.1189 44.4763 80.0661 44.337 80.0181L44.2912 80.0056C43.6787 79.7598 43.0828 79.5098 42.4912 79.2473C42.362 79.2056 42.2536 79.1473 42.1245 79.0973C41.4237 78.7919 40.7291 78.4724 40.0411 78.139L40.6161 78.3931C40.4661 78.3268 40.3188 78.2545 40.1745 78.1765C39.7828 77.9931 39.3911 77.7848 39.0078 77.589C38.7158 77.4506 38.4282 77.3033 38.1453 77.1473L38.2286 77.1889C37.7578 76.9389 37.2869 76.6681 36.8119 76.4139C36.6703 76.3139 36.5078 76.2306 36.3453 76.1389C35.6392 75.7286 34.9418 75.3035 34.2536 74.8639L34.5161 75.0223C34.3397 74.9133 34.1673 74.798 33.9994 74.6764L34.0244 74.6931C33.5766 74.418 33.1374 74.129 32.7077 73.8264C32.566 73.7347 32.4369 73.6347 32.291 73.5347C31.8421 73.2283 31.4003 72.9116 30.966 72.5847L31.066 72.6556C30.891 72.5139 30.7035 72.3806 30.516 72.2431C30.1494 71.9556 29.7785 71.6806 29.4118 71.3806L28.9202 70.9889C28.3962 70.572 27.8821 70.1427 27.3785 69.7014L27.3743 69.6972L25.9285 68.3847L25.5118 67.993C25.1701 67.6472 24.8201 67.318 24.4701 66.9763L24.066 66.5597C23.6346 66.1325 23.2136 65.6948 22.8034 65.2472L22.7784 65.218L22.7076 65.1597C22.2664 64.6751 21.8317 64.1848 21.4034 63.6888C21.2909 63.5597 21.1868 63.4221 21.0701 63.2846L20.1242 62.1388C19.6979 61.6033 19.2811 61.0601 18.8742 60.5096L18.7076 60.2763C8.96579 47.0428 5.44075 28.7802 13.2367 13.7967L6.35326 22.5009C-2.501 35.1636 -1.40515 51.6304 5.36575 65.0763C5.51992 65.4055 5.69076 65.7138 5.85743 66.0263Z" fill="#1266A9"/>
<path d="M35.6786 47.7845L35.6328 47.7179L35.5952 47.6678L35.6786 47.7845Z" fill="black"/>
<path d="M40.3368 53.251L40.7118 53.626C41.1868 54.0844 41.6744 54.5302 42.1702 54.976L42.2327 55.0302C42.7327 55.4719 43.2952 55.9344 43.8744 56.3844L43.9619 56.4511C44.1035 56.5469 44.2244 56.6594 44.3619 56.7552C44.9452 57.2052 45.5327 57.6344 46.1452 58.0636L46.2077 58.1011C46.4661 58.2886 46.7411 58.4594 47.0327 58.6428C47.1494 58.7178 47.2827 58.8178 47.4077 58.8928C47.8494 59.1761 48.2827 59.4386 48.7286 59.7094C48.7994 59.7386 48.8619 59.7761 48.9286 59.8053C49.3036 60.0344 49.7119 60.2553 50.1036 60.4553C50.2411 60.5386 50.3744 60.6011 50.5161 60.6803C50.7953 60.8178 51.0703 60.9636 51.3369 61.1053L51.4703 61.1636C52.0328 61.4386 52.6078 61.6969 53.1703 61.9511C53.312 62.0053 53.4328 62.0511 53.5536 62.1095C54.0161 62.3095 54.487 62.5011 54.9495 62.6761C55.1578 62.747 55.3536 62.8303 55.5495 62.8928C55.9745 63.0511 56.4203 63.197 56.8412 63.3428L57.4245 63.5303C58.0328 63.7178 58.6495 63.9636 59.2954 64.0636C92.3498 69.5054 99.9999 44.1843 99.9999 44.1843C93.1124 54.0469 79.7831 58.7469 65.5788 55.076C64.8697 54.8972 64.1665 54.6957 63.4704 54.4719L63.7079 54.5385C63.5079 54.4844 63.3329 54.4219 63.1412 54.3635C62.7079 54.2135 62.2621 54.0677 61.8412 53.9135L61.2412 53.6885C60.7745 53.501 60.2995 53.326 59.8454 53.126C59.7037 53.0635 59.5745 53.0219 59.4662 52.9594C58.8829 52.6969 58.2953 52.4385 57.7245 52.1635L56.8662 51.7177L56.3703 51.4677C55.987 51.2677 55.6328 51.0593 55.2661 50.8468C55.1726 50.8029 55.0822 50.7528 54.9953 50.6968L55.0078 50.701C54.5661 50.426 54.1078 50.1593 53.6828 49.8802C53.5411 49.801 53.412 49.7052 53.2786 49.6218L52.412 49.0593C51.812 48.6427 51.2244 48.1968 50.6286 47.7635C50.4953 47.6426 50.3661 47.5426 50.2369 47.4343C43.991 42.5468 39.066 35.8675 36.7285 28.3049C34.2659 20.4424 34.8076 11.6256 39.0618 4.47137L33.8326 11.8381C27.4117 21.009 27.7742 33.2675 32.7743 42.9676C33.6868 44.7593 34.6118 46.2718 35.6326 47.7135C36.5826 49.0718 37.6326 50.6635 38.8993 51.7552C39.3493 52.2677 39.8327 52.7552 40.3368 53.251Z" fill="#1266A9"/>
<path d="M56.9414 3.86303C53.1539 9.39225 52.7913 16.259 55.3997 22.3549C58.1706 28.8299 63.8331 33.9133 70.4332 36.3217C70.704 36.4258 70.9666 36.5133 71.2457 36.6133L71.6124 36.7258C71.9957 36.8467 72.3832 36.9883 72.7791 37.0759C91.0334 40.5801 95.9752 27.7508 97.3043 25.8632C92.9585 32.0716 85.6709 33.5633 76.7291 31.4008C75.9516 31.2112 75.1863 30.9747 74.4374 30.6925L74.5749 30.7383C73.6431 30.4158 72.7304 30.0402 71.8416 29.6133L71.9999 29.6841C70.2915 28.8508 68.8249 27.9508 67.4623 26.9174C59.4706 20.8757 54.5289 9.37141 59.7456 0.000488281L56.9414 3.86303Z" fill="#1266A9"/>
</svg>
