<svg width="45" height="100" viewBox="0 0 45 100" fill="none" xmlns="http://www.w3.org/2000/svg">
<path d="M22.1455 0.27356L24.8141 5.28569C25.414 6.21062 26.064 7.02931 26.8295 7.79175C29.074 10.0082 31.1661 12.3739 33.0916 14.8725C37.6131 20.8095 40.6629 27.4028 42.8409 34.5335C44.1471 38.8894 44.8564 43.3578 44.9095 47.8763C45.1282 61.3846 40.4973 72.9838 31.1605 82.6237C29.6417 84.1524 28.001 85.5548 26.2546 86.8171C25.3296 86.8171 24.8922 86.1078 24.511 85.4547C23.8167 84.2437 23.3547 82.9137 23.1486 81.5331C22.8205 79.8989 22.6048 78.2646 22.7111 76.5772V75.8148C22.6361 75.6523 21.8205 0.657906 22.1455 0.27356Z" fill="#599636"/>
<path d="M22.1455 0.10799C22.0361 -0.110744 21.9268 0.0548687 21.8174 0.161111C21.8705 1.25478 21.4893 2.22971 20.8925 3.16089C20.2363 4.08582 19.3676 4.79514 18.4958 5.55759C13.6524 9.75103 9.84015 14.8163 6.78725 20.4815C2.72504 28.1059 0.631444 36.2772 0.037737 44.8797C-0.234118 47.9826 1.01892 58.9318 1.99697 62.0909C4.66553 70.4778 9.45893 77.5054 15.6679 83.6049C17.1927 85.0736 18.8239 86.436 20.5113 87.7453C21.0018 87.7453 21.055 87.3078 21.1675 86.9828C21.3825 86.2874 21.5465 85.5773 21.658 84.858L22.7517 76.6898L22.1455 0.10799Z" fill="#6CAC48"/>
<path d="M24.814 90.1357C24.9234 88.8858 25.5234 87.8484 26.1765 86.8141C25.5203 86.5422 25.0328 86.0016 24.6516 85.3986C24.3228 84.8276 24.0507 84.2258 23.8391 83.6018C23.0767 81.3145 22.9142 78.9147 22.6955 76.5774V75.1619C22.4236 75.3806 22.3673 77.2305 22.3673 77.5054C22.2083 79.9758 21.8805 82.4324 21.3862 84.858C21.2237 85.8391 21.1143 86.8172 20.5112 87.689C20.5112 87.7984 20.5112 87.9077 20.5644 88.0702C21.5455 90.9575 21.8143 93.8979 21.9799 96.8945V97.9882C21.9799 99.2943 21.9268 99.0194 23.0111 99.4568C23.4485 99.6193 23.936 99.6756 24.3735 100.001C24.7016 100.001 24.7547 99.7287 24.7547 99.5099L24.5922 97.7132V92.7011C24.5391 91.8262 24.7016 90.9575 24.8109 90.1388L24.814 90.1357Z" fill="#C2BFBF"/>
</svg>
