<svg width="99" height="100" viewBox="0 0 99 100" fill="none" xmlns="http://www.w3.org/2000/svg">
<path d="M92.0601 40.9371C93.3101 37.4996 93.6226 34.0621 93.3101 30.6246C92.9976 27.1871 91.7476 23.7496 90.1851 20.6246C87.3726 15.9371 83.3101 12.1871 78.6226 9.99963C73.6226 7.81213 68.3101 7.18713 62.9976 8.43713C60.4976 5.93713 57.6851 3.74963 54.5601 2.18713C51.4351 0.624634 47.6851 -0.000366211 44.2476 -0.000366211C38.9351 -0.000366211 33.6226 1.56213 29.2476 4.68713C24.8726 7.81213 21.7476 12.1871 20.1851 17.1871C16.4351 18.1246 13.3101 19.6871 10.1851 21.5621C7.37257 23.7496 5.18507 26.5621 3.31007 29.3746C0.497572 34.0621 -0.439928 39.3746 0.185072 44.6871C0.810072 49.9996 2.99757 54.9996 6.43507 59.0621C5.18507 62.4996 4.87257 65.9371 5.18507 69.3746C5.49757 72.8121 6.74757 76.2496 8.31007 79.3746C11.1226 84.0621 15.1851 87.8121 19.8726 89.9996C24.8726 92.1871 30.1851 92.8121 35.4976 91.5621C37.9976 94.0621 40.8101 96.2496 43.9351 97.8121C47.0601 99.3746 50.8101 99.9996 54.2476 99.9996C59.5601 99.9996 64.8726 98.4371 69.2476 95.3121C73.6226 92.1871 76.7476 87.8121 78.3101 82.8121C81.7476 82.1871 85.1851 80.6246 87.9976 78.4371C90.8101 76.2496 93.3101 73.7496 94.8726 70.6246C97.6851 65.9371 98.6226 60.6246 97.9976 55.3121C97.3726 49.9996 95.4976 44.9996 92.0601 40.9371ZM54.5601 93.4371C49.5601 93.4371 45.8101 91.8746 42.3726 89.0621C42.3726 89.0621 42.6851 88.7496 42.9976 88.7496L62.9976 77.1871C63.6226 76.8746 63.9351 76.5621 64.2476 75.9371C64.5601 75.3121 64.5601 74.9996 64.5601 74.3746V46.2496L72.9976 51.2496V74.3746C73.3101 85.3121 64.5601 93.4371 54.5601 93.4371ZM14.2476 76.2496C12.0601 72.4996 11.1226 68.1246 12.0601 63.7496C12.0601 63.7496 12.3726 64.0621 12.6851 64.0621L32.6851 75.6246C33.3101 75.9371 33.6226 75.9371 34.2476 75.9371C34.8726 75.9371 35.4976 75.9371 35.8101 75.6246L60.1851 61.5621V71.2496L39.8726 83.1246C35.4976 85.6246 30.4976 86.2496 25.8101 84.9996C20.8101 83.7496 16.7476 80.6246 14.2476 76.2496ZM8.93507 32.8121C11.1226 29.0621 14.5601 26.2496 18.6226 24.6871V25.3121V48.4371C18.6226 49.0621 18.6226 49.6871 18.9351 49.9996C19.2476 50.6246 19.5601 50.9371 20.1851 51.2496L44.5601 65.3121L36.1226 70.3121L16.1226 58.7496C11.7476 56.2496 8.62257 52.1871 7.37257 47.4996C6.12257 42.8121 6.43507 37.1871 8.93507 32.8121ZM77.9976 48.7496L53.6226 34.6871L62.0601 29.6871L82.0601 41.2496C85.1851 43.1246 87.6851 45.6246 89.2476 48.7496C90.8101 51.8746 91.7476 55.3121 91.4351 59.0621C91.1226 62.4996 89.8726 65.9371 87.6851 68.7496C85.4976 71.5621 82.6851 73.7496 79.2476 74.9996V51.2496C79.2476 50.6246 79.2476 49.9996 78.9351 49.6871C78.9351 49.6871 78.6226 49.0621 77.9976 48.7496ZM86.4351 36.2496C86.4351 36.2496 86.1226 35.9371 85.8101 35.9371L65.8101 24.3746C65.1851 24.0621 64.8726 24.0621 64.2476 24.0621C63.6226 24.0621 62.9976 24.0621 62.6851 24.3746L38.3101 38.4371V28.7496L58.6226 16.8746C61.7476 14.9996 65.1851 14.3746 68.9351 14.3746C72.3726 14.3746 75.8101 15.6246 78.9351 17.8121C81.7476 19.9996 84.2476 22.8121 85.4976 25.9371C86.7476 29.0621 87.0601 32.8121 86.4351 36.2496ZM33.9351 53.7496L25.4976 48.7496V25.3121C25.4976 21.8746 26.4351 18.1246 28.3101 15.3121C30.1851 12.1871 32.9976 9.99963 36.1226 8.43713C39.2476 6.87463 42.9976 6.24963 46.4351 6.87463C49.8726 7.18713 53.3101 8.74963 56.1226 10.9371C56.1226 10.9371 55.8101 11.2496 55.4976 11.2496L35.4976 22.8121C34.8726 23.1246 34.5601 23.4371 34.2476 24.0621C33.9351 24.6871 33.9351 24.9996 33.9351 25.6246V53.7496ZM38.3101 43.7496L49.2476 37.4996L60.1851 43.7496V56.2496L49.2476 62.4996L38.3101 56.2496V43.7496Z" fill="#193718"/>
</svg>
