<svg width="100" height="51" viewBox="0 0 100 51" fill="none" xmlns="http://www.w3.org/2000/svg">
<path fill-rule="evenodd" clip-rule="evenodd" d="M50 50.6778C77.6143 50.6778 100 39.3329 100 25.3391C100 11.3454 77.6143 0.000488281 50 0.000488281C22.3863 0.000488281 0 11.3454 0 25.3391C0 39.3329 22.3863 50.6778 50 50.6778Z" fill="#6E81B6"/>
<path fill-rule="evenodd" clip-rule="evenodd" d="M60.1331 33.5289L62.6133 20.7644C63.1731 17.8834 62.7076 15.7346 61.2305 14.3767C59.7994 13.0629 57.3701 12.4238 53.8041 12.4238H49.5089L50.7375 6.09957C50.7605 5.98186 50.7572 5.86052 50.7278 5.74425C50.6984 5.62798 50.6436 5.51966 50.5673 5.42707C50.4911 5.33448 50.3953 5.25992 50.2869 5.20872C50.1784 5.15753 50.06 5.13098 49.94 5.13098H44.0118C43.6225 5.13098 43.2881 5.40729 43.2137 5.7894L40.5795 19.3405C40.34 17.8157 39.7499 16.5049 38.8055 15.4233C37.0667 13.4329 34.3163 12.4238 30.63 12.4238H19.14C18.7506 12.4238 18.4163 12.7001 18.3419 13.0816L13.0111 40.5116C12.9645 40.7504 13.0268 40.9959 13.1816 41.1833C13.3357 41.3713 13.5655 41.4795 13.8092 41.4795H19.7839C20.1733 41.4795 20.5076 41.2032 20.582 40.8205L21.8716 34.1861H26.3191C28.6529 34.1861 30.6143 33.9334 32.1452 33.4352C33.7105 32.9261 35.1513 32.0627 36.421 30.8741C37.447 29.9315 38.2946 28.8758 38.947 27.7374L37.8823 33.2175C37.8357 33.4564 37.898 33.703 38.0528 33.8893C38.207 34.0773 38.4373 34.1855 38.6804 34.1855H44.6086C44.9979 34.1855 45.3323 33.9092 45.4067 33.5277L48.3324 18.4711H52.4002C54.1336 18.4711 54.6415 18.8163 54.7799 18.9645C54.9051 19.0999 55.1651 19.5769 54.873 21.0806L52.5151 33.2169C52.4925 33.3346 52.4961 33.4558 52.5257 33.5719C52.5554 33.688 52.6103 33.7961 52.6865 33.8886C52.7627 33.981 52.8584 34.0555 52.9667 34.1068C53.075 34.158 53.1933 34.1847 53.3131 34.1849H59.3357C59.5241 34.1853 59.7068 34.12 59.8523 34.0003C59.9979 33.8806 60.0972 33.7139 60.1331 33.5289ZM32.6488 22.9821C32.2764 24.8957 31.575 26.2603 30.5629 27.0384C29.5351 27.8311 27.8911 28.2325 25.6764 28.2325H23.0282L24.943 18.3786H28.3669C30.8821 18.3786 31.8954 18.9161 32.3024 19.3665C32.8665 19.9917 32.9862 21.2426 32.6488 22.9821ZM85.1041 15.4233C83.3659 13.4329 80.6155 12.4238 76.9292 12.4238H65.4392C65.0492 12.4238 64.7155 12.7001 64.6411 13.0816L59.3109 40.5116C59.2637 40.7504 59.326 40.9959 59.4808 41.1833C59.6355 41.3707 59.8659 41.4795 60.1077 41.4795H66.0831C66.4731 41.4795 66.8068 41.2032 66.8812 40.8205L68.1708 34.1861H72.6189C74.9533 34.1861 76.9129 33.9334 78.4444 33.4352C80.0103 32.9261 81.4511 32.0627 82.7201 30.8741C83.7794 29.9013 84.6507 28.8075 85.3109 27.6267C85.9711 26.4459 86.4445 25.1291 86.7209 23.7119C87.3998 20.2166 86.8563 17.4281 85.1041 15.4233ZM79.2872 22.9821C78.9141 24.8957 78.2128 26.2603 77.2019 27.0384C76.1734 27.8311 74.5295 28.2325 72.3154 28.2325H69.6666L71.5808 18.3786H75.0053C77.5205 18.3786 78.5338 18.9161 78.9413 19.3665C79.5042 19.9917 79.6245 21.2426 79.2872 22.9821Z" fill="white"/>
<path fill-rule="evenodd" clip-rule="evenodd" d="M28.197 17.5655C30.4667 17.5655 31.98 17.9845 32.7364 18.8225C33.4922 19.6605 33.6723 21.0995 33.2769 23.1376C32.8634 25.2604 32.0677 26.7755 30.8887 27.6837C29.7097 28.5918 27.9152 29.0452 25.5065 29.0452H21.8715L24.1026 17.5655H28.197ZM13.6385 40.6664H19.6133L21.0311 33.3742H26.1492C28.4074 33.3742 30.2654 33.1366 31.7237 32.662C33.182 32.1874 34.5079 31.3923 35.7008 30.2756C36.702 29.356 37.5122 28.3403 38.1326 27.2302C38.7523 26.1201 39.1924 24.8958 39.453 23.5566C40.0855 20.305 39.6084 17.7723 38.0231 15.9585C36.4384 14.144 33.9166 13.2371 30.46 13.2371H18.97L13.6385 40.6664ZM43.8413 5.94434H49.7695L48.3523 13.2371H53.6342C56.9559 13.2371 59.2492 13.8163 60.5104 14.9754C61.7716 16.1344 62.1495 18.0129 61.6453 20.6097L59.1652 33.3742H53.1426L55.5006 21.2373C55.7685 19.8564 55.6705 18.915 55.2044 18.4126C54.7382 17.9108 53.746 17.6592 52.2297 17.6592H47.4919L44.438 33.3742H38.5098L43.8413 5.94434ZM74.8355 17.5655C77.1052 17.5655 78.6179 17.9845 79.3749 18.8225C80.1307 19.6605 80.3102 21.0995 79.9148 23.1376C79.5025 25.2604 78.7068 26.7755 77.5272 27.6837C76.3488 28.5918 74.5537 29.0452 72.1462 29.0452H68.5112L70.7416 17.5655H74.8355ZM60.2758 40.6664H66.2512L67.6684 33.3742H72.7864C75.0453 33.3742 76.9033 33.1366 78.3616 32.662C79.8199 32.1874 81.1458 31.3923 82.3387 30.2756C83.3399 29.356 84.1501 28.3403 84.7698 27.2302C85.3896 26.1201 85.8303 24.8958 86.0915 23.5566C86.7233 20.305 86.2463 17.7723 84.6616 15.9585C83.0757 14.144 80.5545 13.2371 77.0979 13.2371H65.6079L60.2758 40.6664Z" fill="black"/>
</svg>
