<svg width="100" height="100" viewBox="0 0 100 100" fill="none" xmlns="http://www.w3.org/2000/svg">
<path d="M0 0.000488281H100V100H0V0.000488281Z" fill="#138178"/>
<path d="M65.8051 34.0009C60.5254 30.9376 55.8387 28.5286 49.7075 28.6348C46.1997 28.6958 43.1879 30.6024 42.5547 34.0919C41.9653 37.3384 44.8512 39.1391 47.8536 40.2446C52.8329 42.0782 57.1676 44.0141 62.0602 46.0528C70.9543 49.7594 75.5149 55.7622 74.9758 63.4641C74.2899 73.2637 68.3922 80.2922 59.0192 82.6094C46.7715 85.6376 34.8782 81.0251 24.8293 74.586C27.3657 70.7223 30.3083 68.0848 32.8293 64.2446C38.6348 66.7157 43.1958 70.0547 49.2692 70.5755C53.5516 70.9426 58.404 70.7383 59.3661 65.7083C60.2333 61.1723 56.2856 58.7407 52.4352 57.3825C47.8512 55.7657 43.2758 53.788 38.7805 51.952C30.4708 48.5579 27.0895 41.9192 27.6586 34.0985C27.6586 29.513 31.4633 20.2446 40.7918 17.3618C55.1247 12.9321 63.0215 17.4681 73.4149 24.1474C70.6543 27.7981 68.5321 30.3938 65.8051 34.0009Z" fill="white"/>
</svg>
