<svg width="200" height="200" viewBox="0 0 5634 5419" fill="none" xmlns="http://www.w3.org/2000/svg">
<path d="M1773.31 3749.79C1655.32 3799.21 1610.51 3920.34 1687.62 3989.49C1846.28 4131.79 2499.43 4061.5 2530.16 3965.04C2560.44 3870.01 2019.5 3646.65 1773.31 3749.79Z" stroke="black" stroke-width="10" stroke-miterlimit="10"/>
<path d="M2065.65 3433.29C2335.15 3338.86 2787.67 4011.17 2600.88 4169.89C2486.04 4267.49 2208.03 4255.3 1981.31 4223.22C1768.48 4193.12 1464.36 4070.01 1389.34 3865.56C1349.61 3757.02 1373.46 3602.38 1457.6 3548.23C1522.71 3506.33 1610.62 3525.18 1630.02 3518.21C1722.47 3556.57 1736.03 3571.48 1809.69 3580.47C1905.97 3592.24 1991.54 3459.25 2065.65 3433.29Z" stroke="black" stroke-width="10" stroke-miterlimit="10"/>
<path d="M2339.09 3102.62C2652.09 3152.61 2992.22 4134.59 2652.69 4360.58C2436.46 4504.51 2059.48 4440.95 1796.73 4364.86C1555.36 4294.97 1153.45 4061.73 1072.14 3727.46C1024.87 3533.23 1082.31 3260 1246.87 3180.97C1378.05 3117.99 1547.08 3172.14 1576.84 3176.31C1752.74 3270.97 1766.97 3319.13 1897.94 3351.54C2071.37 3394.42 2208.28 3081.63 2339.09 3102.62Z" stroke="black" stroke-width="10" stroke-miterlimit="10"/>
<path d="M2592.71 2774.15C2938.3 2866.29 3176.95 4259.41 2684.68 4553.43C2366.97 4743.18 1890.92 4629.35 1592.32 4508.68C1322.19 4399.54 824.177 4056.1 735.124 3591.53C681.402 3311.36 771.054 2920.13 1016.3 2815.88C1213.37 2732.08 1465.05 2818.08 1503.78 2836.59C1774.53 2966.06 1777.96 3068.95 1966.46 3124.79C2216.85 3199.16 2411.72 2725.99 2592.71 2774.15Z" stroke="black" stroke-width="10" stroke-miterlimit="10"/>
<path d="M2831.08 2460.62C3213.79 2593.55 3345.8 4397.77 2701.41 4761.26C2281.8 4995.84 1706.87 4833.01 1372.68 4667.48C1073.48 4519.33 479.991 4065.73 382.742 3470.54C322.965 3104.68 444.433 2595.32 770.397 2465.67C1033.47 2361.13 1365.8 2483.75 1415.41 2511.72C1764.42 2708.46 1773.45 2834.13 2019.41 2912.99C2346.83 3018.88 2601.99 2381.07 2831.08 2460.62Z" stroke="black" stroke-width="10" stroke-miterlimit="10"/>
<path d="M513.779 2119.64C842.741 1994.39 1255.53 2153.45 1316.33 2191.04C1742.66 2454.62 1758.43 2602.55 2061.77 2705.17C2466.27 2842.02 2783.24 2037.95 3058.54 2151.06C3481.41 2324.8 3505.14 4542.44 2707.24 4973.05C2186.61 5254.02 1511.69 5040.83 1142.11 4830.23C813.895 4643.23 125.353 4079.46 19.6788 3353.54C-46.0108 2902.03 107.046 2274.47 513.779 2119.64Z" stroke="black" stroke-width="10" stroke-miterlimit="10"/>
<path d="M4073.47 1891.14C3943.89 1890.05 3788.49 1665.29 3904.7 1627.76C3971.82 1606.05 4149.53 1640.38 4219.33 1701.48C4317.63 1787.45 4162.64 1891.91 4073.47 1891.14Z" stroke="black" stroke-width="10" stroke-miterlimit="10"/>
<path d="M3721.32 1659.23C3734 1629.07 3793.38 1615.68 3847.55 1578.94C3957.46 1504.4 3973.22 1468.98 4051.28 1424.02C4081.72 1406.45 4122.68 1383.38 4162.66 1393.94C4223.9 1410.14 4239.18 1480.23 4316.89 1603.68C4417.65 1764.09 4455.81 1805.56 4427.02 1890.56C4420.31 1910.33 4411.63 1974.34 4363.1 2013.38C4295.9 2067.37 4217.13 2025.67 4118.65 2061.4C4000.38 2104.24 3941.75 2180.5 3890.42 2146.8C3854.27 2123.06 3852.92 2058.06 3825.85 1944.86C3805.23 1858.63 3792.26 1802.05 3767.18 1755.89C3737.11 1700.94 3707.21 1692.77 3721.32 1659.23Z" stroke="black" stroke-width="10" stroke-miterlimit="10"/>
<path d="M3523.25 1722.1C3525.45 1668.63 3609.42 1642.75 3678.62 1565.49C3820.54 1407 3754.79 1293.75 3868.55 1177.95C3916.81 1128.8 3992.56 1081.18 4068.47 1090.41C4176.2 1103.52 4212.39 1214.83 4378.24 1440.5C4595.07 1735.55 4687.44 1793.34 4667.19 1950.57C4663.05 1982.62 4659.02 2105.67 4574.28 2179.73C4461.27 2278.5 4325.8 2188.64 4148.87 2262.88C3951.17 2345.71 3877.29 2522.8 3810.63 2486.15C3764.33 2460.7 3782.07 2358.22 3746.48 2158.34C3721.29 2016.27 3705.72 1933.24 3655.37 1865.23C3591.82 1779.46 3520.88 1780.17 3523.25 1722.1Z" stroke="black" stroke-width="10" stroke-miterlimit="10"/>
<path d="M3324.98 1784.28C3316.41 1707.65 3425.14 1669.12 3509.48 1551.32C3683.13 1308.83 3533.42 1119.29 3685.62 931.172C3750.76 850.682 3862.49 778.676 3974.08 786.188C4128.73 796.584 4185.88 948.252 4439.62 1276.64C4773.21 1705.71 4916.87 1781.25 4907.44 2009.9C4905.59 2054.48 4906.44 2236.26 4785.54 2345.48C4626.69 2488.95 4434.25 2350.77 4179.2 2463.73C3901.88 2586.55 3813 2864.38 3730.8 2824.91C3674.39 2797.6 3710.52 2657.76 3667.08 2371.19C3637.09 2173.28 3619.01 2064.2 3543.5 1973.94C3446.16 1857.63 3334.15 1866.83 3324.98 1784.28Z" stroke="black" stroke-width="10" stroke-miterlimit="10"/>
<path d="M3126.25 1846.29C3107.03 1746.58 3240.21 1695.25 3339.89 1537.01C3544.9 1210.37 3310.9 945.282 3502.26 684.247C3584.05 572.567 3732.06 476.14 3879.26 481.795C4080.95 489.564 4158.15 682.105 4500.42 1112.63C4949.71 1676.46 5145.24 1769.57 5146.98 2069.08C5147.32 2126.21 5152.98 2366.53 4996.07 2511.06C4791.17 2699.06 4542.12 2512.63 4208.79 2664.44C3851.78 2827.08 3747.91 3205.9 3650.51 3163.52C3583.97 3134.44 3638.52 2957.12 3587.22 2583.89C3552.35 2330.12 3531.87 2195.13 3431.2 2082.51C3299.99 1935.81 3146.93 1953.52 3126.25 1846.29Z" stroke="black" stroke-width="10" stroke-miterlimit="10"/>
<path d="M2927.16 1908.27C2959.35 2040.23 3153.39 2013.95 3318.44 2191.04C3444.31 2326.06 3467.18 2486.9 3506.94 2796.57C3565.97 3256.43 3493.09 3471.25 3569.77 3502.07C3682.5 3547.4 3801.34 3067.55 4238.09 2865.12C4649.54 2674.44 4955.71 2909.51 5206.3 2676.61C5399.49 2497.04 5388.75 2198.16 5386.23 2128.21C5372.92 1757.92 5125.85 1647.15 4560.83 948.567C4129.99 415.901 4032.83 182.544 3783.98 177.374C3601.19 173.575 3416.83 294.481 3318.44 437.295C3088.04 771.478 3406.78 1112.26 3169.92 1522.68C3055.14 1721.56 2897.2 1785.51 2927.16 1908.27Z" stroke="black" stroke-width="10" stroke-miterlimit="10"/>
<path d="M4573.82 4032.19C4540.01 4015.06 4469.01 4048.07 4462.72 4099.52C4455.61 4157.87 4535.95 4206.14 4571.25 4191.14C4613.01 4173.38 4618.69 4054.87 4573.82 4032.19Z" stroke="black" stroke-width="10" stroke-miterlimit="10"/>
<path d="M4669.1 4342.24C4726.74 4288.34 4751.93 4189.43 4780.75 4019.88C4809.31 3851.76 4804.82 3731.4 4779.72 3722.66C4766.04 3717.95 4727.28 3754.82 4694.04 3781.84C4631.8 3832.28 4525.27 3826.68 4497.97 3832.14C4398 3852.13 4368.64 3889.27 4326.86 3960.39C4307.52 3993.23 4262.43 4066.07 4242.58 4151.76C4212.3 4281.52 4076.61 4321.5 4093.15 4373.52C4107.06 4416.93 4241.49 4427.47 4328.66 4428.7C4453.58 4430.47 4579.99 4425.47 4669.1 4342.24Z" stroke="black" stroke-width="10" stroke-miterlimit="10"/>
<path d="M4769.01 4487.14C4863.74 4390.83 4901.02 4229.19 4958.42 3926.91C5016.74 3623.18 5016.37 3414.84 4987.64 3407.07C4966.08 3401.13 4896.25 3476.22 4836.9 3529.89C4725.02 3631.49 4524.76 3614.78 4483.49 3621.29C4295.27 3650.37 4248.89 3720.03 4175.95 3851.71C4145.56 3906.55 4062.19 4040.22 4024.2 4198.09C3965.74 4439.93 3688.56 4503.25 3711.49 4592.91C3730.66 4667.57 3987.7 4679.02 4149.44 4672.88C4377.81 4664 4608.93 4649.95 4769.01 4487.14Z" stroke="black" stroke-width="10" stroke-miterlimit="10"/>
<path d="M4868.37 4631.1C5000.29 4492.4 5049.22 4267.92 5135.53 3833C5223.18 3393.56 5227.26 3097.74 5194.99 3090.37C5165.43 3083.51 5064.58 3196.62 4979.3 3277.08C4818.08 3430.09 4523.81 3401.96 4468.55 3409.33C4192.14 3446.23 4128.48 3549.43 4024.57 3741.94C3983.1 3818.74 3861.52 4013.29 3805.34 4243.24C3718.77 4597.19 3300.07 4683.79 3329.35 4811.13C3353.8 4917.04 3733.51 4929.86 3969.77 4915.84C4301.53 4897.13 4637.69 4873.65 4868.37 4631.1Z" stroke="black" stroke-width="10" stroke-miterlimit="10"/>
<path d="M4967.42 4774.97C5136.61 4593.88 5197.13 4306.54 5312.35 3738.97C5429.45 3163.89 5438.01 2780.66 5402.08 2773.55C5364.5 2766.04 5232.58 2916.71 5121.42 3024.02C4910.53 3228.1 4522.62 3188.82 4453.36 3197.25C4088.75 3241.49 4007.32 3378.48 3872.92 3632.03C3820.19 3730.74 3660.57 3986.21 3586.25 4288.29C3471.5 4754.32 2911.28 4864.22 2946.98 5029.23C2976.65 5166.33 3479.04 5180.01 3789.83 5158.71C4224.84 5129.37 4666.25 5097.35 4967.42 4774.97Z" stroke="black" stroke-width="10" stroke-miterlimit="10"/>
<path d="M4438.02 2985.09C3985.25 3036.5 3886.8 3207.87 3721.15 3522.06C3657.45 3642.86 3459.47 3959.07 3366.99 4333.24C3224.19 4911.41 2522.37 5044.6 2564.44 5247.25C2599.4 5415.77 3224.42 5430.05 3609.76 5401.49C4148.18 5361.5 4694.75 5321 5066.35 4918.78C5272.82 4695.28 5344.91 4345.15 5489.05 3644.88C5635.37 2934.13 5648.42 2463.59 5609.01 2456.68C5563.31 2448.68 5400.51 2636.62 5263.42 2770.87C5002.83 3025.99 4521.3 2975.63 4438.02 2985.09Z" stroke="black" stroke-width="10" stroke-miterlimit="10"/>
<path d="M756.545 1611.22C807.954 1808.3 1176.96 1715.73 1616.22 2159.62C1773.62 2318.69 1879.15 2485.07 2087.47 2510.95C2108.49 2513.54 2317.19 2536.37 2464.47 2402.41C2649.78 2233.89 2536.68 2000.1 2752.94 1674.06C2832.59 1553.95 2845.85 1588.83 2904.31 1494.11C3153.82 1089.81 2773.27 679.363 2992.85 268.775C3093.92 79.7755 3244.18 36.3888 3229.9 11.7106C3168.27 -94.1712 617.626 1080.15 756.545 1611.22Z" stroke="black" stroke-width="10" stroke-miterlimit="10"/>
<path d="M2144.59 2241.51C2157.22 2239.8 2294.82 2250.08 2389.22 2155.37C2508.57 2035.78 2423.49 1871.11 2560.24 1648.81C2610.56 1566.95 2617.56 1589.14 2653.38 1524.39C2806.17 1248.07 2531.93 970.103 2666.23 699.614C2728.38 574.395 2826.48 545.69 2811.89 533.465C2745.88 477.711 1062.32 1301.37 1194.55 1659.78C1244.13 1794.19 1514.8 1746.49 1824.51 2036C1937.13 2141.2 2013.39 2259.31 2144.59 2241.51Z" stroke="black" stroke-width="10" stroke-miterlimit="10"/>
<path d="M2201.72 1972.05C2205.31 1963 2272.6 1963.2 2313.96 1908.33C2367.65 1837.15 2310.48 1742.32 2367.54 1623.59C2388.47 1580 2389.33 1589.31 2402.47 1554.67C2458.88 1405.66 2290.37 1261.01 2339.64 1130.43C2362.68 1068.96 2405.53 1058.48 2394.1 1055.19C2310.59 1067.04 1508.72 1523.39 1632.42 1708.33C1680.71 1780.6 1853.59 1777.14 2032.67 1912.39C2100.73 1963.8 2145.28 2001.44 2201.72 1972.05Z" stroke="black" stroke-width="10" stroke-miterlimit="10"/>
<path d="M2258.84 1702.62C2214.51 1573.09 2040.01 1529.05 1976.09 1576.95C1881.84 1647.67 1962.23 1739.75 2070.34 1756.89C2151.14 1769.6 2309.56 1850.86 2258.84 1702.62Z" stroke="black" stroke-width="10" stroke-miterlimit="10"/>
</svg>
