<svg width="99" height="100" viewBox="0 0 99 100" fill="none" xmlns="http://www.w3.org/2000/svg">
<path d="M97.848 14.8014L51.7313 98.6951C50.779 100.427 48.3328 100.437 47.3664 98.7139L0.335428 14.8092C-0.71763 12.9311 0.86119 10.6559 2.9535 11.0366L49.1197 19.4312C49.4142 19.4847 49.7158 19.4842 50.0102 19.4296L95.2107 11.0484C97.2961 10.6617 98.8822 12.9194 97.848 14.8014Z" fill="url(#paint0_linear_790_3557)"/>
<path d="M71.1109 0.025109L36.9835 6.82829C36.7108 6.88263 36.4636 7.02763 36.2808 7.24048C36.0979 7.45333 35.9898 7.72197 35.9734 8.00415L33.8742 44.0745C33.8626 44.2723 33.8966 44.4702 33.9733 44.6523C34.05 44.8345 34.1675 44.9959 34.3162 45.1238C34.465 45.2518 34.6411 45.3426 34.8304 45.3892C35.0197 45.4359 35.2171 45.4369 35.407 45.3924L44.9086 43.1616C45.7976 42.9529 46.601 43.7495 46.4181 44.6589L43.5952 58.7221C43.4054 59.6686 44.2786 60.4777 45.1871 60.1968L51.056 58.3831C51.9656 58.1022 52.84 58.9137 52.6474 59.8609L48.1614 81.9508C47.8807 83.3326 49.6873 84.086 50.4405 82.9015L50.944 82.1103L78.753 25.65C79.219 24.7047 78.4156 23.6267 77.3955 23.8273L67.6146 25.7475C66.6958 25.9277 65.9138 25.057 66.1731 24.1425L72.5566 1.62974C72.8162 0.712918 72.0312 -0.158255 71.1113 0.025109H71.1109Z" fill="url(#paint1_linear_790_3557)"/>
<defs>
<linearGradient id="paint0_linear_790_3557" x1="-0.812871" y1="17.8052" x2="50.0375" y2="85.688" gradientUnits="userSpaceOnUse">
<stop stop-color="#41D1FF"/>
<stop offset="1" stop-color="#BD34FE"/>
</linearGradient>
<linearGradient id="paint1_linear_790_3557" x1="53.3984" y1="1.87231" x2="63.9803" y2="73.2245" gradientUnits="userSpaceOnUse">
<stop stop-color="#FFEA83"/>
<stop offset="0.083" stop-color="#FFDD35"/>
<stop offset="1" stop-color="#FFA800"/>
</linearGradient>
</defs>
</svg>
