<svg width="100" height="99" viewBox="0 0 100 99" fill="none" xmlns="http://www.w3.org/2000/svg">
<path d="M0.951416 34.4988C0.951416 34.4988 -1.48421 32.7432 1.43854 30.3989L8.24814 24.3098C8.24814 24.3098 10.1966 22.2598 12.2568 24.0459L75.0959 71.6219V94.4356C75.0959 94.4356 75.0655 98.018 70.4682 97.6222L0.951416 34.4988Z" fill="#2489CA"/>
<path d="M17.1483 49.2041L0.95141 63.9295C0.95141 63.9295 -0.712936 65.1676 0.95141 67.3799L8.47141 74.22C8.47141 74.22 10.2575 76.138 12.8961 73.9561L30.0673 60.9357L17.1483 49.2041Z" fill="#1070B3"/>
<path d="M45.5843 49.3258L75.2889 26.644L75.0961 3.95198C75.0961 3.95198 73.8275 -1.00047 69.5956 1.57724L30.0674 37.5536L45.5843 49.3258Z" fill="#0877B9"/>
<path d="M70.4683 97.6528C72.1936 99.4187 74.2842 98.8402 74.2842 98.8402L97.4327 87.4333C100.396 85.4138 99.98 82.9071 99.98 82.9071V14.7907C99.98 11.7969 96.9152 10.7618 96.9152 10.7618L76.8517 1.09027C72.4676 -1.61937 69.5956 1.5774 69.5956 1.5774C69.5956 1.5774 73.2896 -1.0815 75.096 3.95214V94.0197C75.096 94.6388 74.9641 95.2477 74.7002 95.7957C74.1725 96.8613 73.0258 97.8558 70.2755 97.4397L70.4683 97.6528Z" fill="#3C99D4"/>
</svg>
