<svg width="100" height="101" viewBox="0 0 100 101" fill="none" xmlns="http://www.w3.org/2000/svg">
<path d="M60.9551 44.1607C60.9701 44.1607 60.985 44.1606 61 44.1606C65.9706 44.1606 70 48.1975 70 53.1771C70 57.8182 66.5 61.6403 62 62.1386M60.9551 44.1607C60.9848 43.8307 61 43.4965 61 43.1588C61 37.0725 56.0751 32.1386 50 32.1386C44.2465 32.1386 39.5247 36.564 39.0408 42.2024M60.9551 44.1607C60.7507 46.4338 59.8572 48.5078 58.4857 50.1716M39.0408 42.2024C33.968 42.6861 30 46.9664 30 52.1753C30 57.0221 33.4355 61.065 38 61.9932M39.0408 42.2024C39.3565 42.1723 39.6765 42.157 40 42.157C42.2516 42.157 44.3295 42.9025 46.001 44.1606" stroke="#141B34" stroke-width="3" stroke-linecap="round" stroke-linejoin="round"/>
<path d="M50 68.1387L50 52.1387M50 68.1387C48.5995 68.1387 45.9831 64.1501 45 63.1387M50 68.1387C51.4005 68.1387 54.0169 64.1501 55 63.1387" stroke="#141B34" stroke-width="3" stroke-linecap="round" stroke-linejoin="round"/>
</svg>