<svg width="242" height="146" viewBox="0 0 242 146" fill="none" xmlns="http://www.w3.org/2000/svg">
<path d="M241.257 1.42875C241.494 1.28667 241.571 0.979542 241.429 0.742752C241.287 0.505962 240.98 0.429179 240.743 0.571254L241.257 1.42875ZM147.409 56.5713C147.173 56.7133 147.096 57.0205 147.238 57.2572C147.38 57.494 147.687 57.5708 147.924 57.4287L147.409 56.5713ZM94.5906 89.4287C94.8274 89.2867 94.9042 88.9795 94.7621 88.7428C94.62 88.506 94.3129 88.4292 94.0761 88.5713L94.5906 89.4287ZM0.742752 144.571C0.505962 144.713 0.429179 145.02 0.571254 145.257C0.713328 145.494 1.02046 145.571 1.25725 145.429L0.742752 144.571ZM1.25725 0.571254C1.02046 0.429179 0.713328 0.505962 0.571254 0.742752C0.429179 0.979542 0.505962 1.28667 0.742752 1.42875L1.25725 0.571254ZM94.0761 57.4287C94.3129 57.5708 94.62 57.494 94.7621 57.2572C94.9042 57.0205 94.8274 56.7133 94.5906 56.5713L94.0761 57.4287ZM147.924 88.5713C147.687 88.4292 147.38 88.506 147.238 88.7428C147.096 88.9795 147.173 89.2867 147.409 89.4287L147.924 88.5713ZM240.743 145.429C240.98 145.571 241.287 145.494 241.429 145.257C241.571 145.02 241.494 144.713 241.257 144.571L240.743 145.429ZM240.743 0.571254L147.409 56.5713L147.924 57.4287L241.257 1.42875L240.743 0.571254ZM94.0761 88.5713L0.742752 144.571L1.25725 145.429L94.5906 89.4287L94.0761 88.5713ZM0.742752 1.42875L94.0761 57.4287L94.5906 56.5713L1.25725 0.571254L0.742752 1.42875ZM147.409 89.4287L240.743 145.429L241.257 144.571L147.924 88.5713L147.409 89.4287Z" fill="#FA1BFF"/>
<path fill-rule="evenodd" clip-rule="evenodd" d="M122.571 78.4286L119 74.5L114 80H121H124H128L124.5 76.5L122.571 78.4286Z" fill="#FA1BFF"/>
<path d="M119 74.5L119.37 74.1637C119.275 74.0594 119.141 74 119 74C118.859 74 118.725 74.0594 118.63 74.1637L119 74.5ZM122.571 78.4286L122.201 78.7649C122.293 78.8661 122.423 78.9252 122.56 78.9284C122.696 78.9317 122.828 78.8788 122.925 78.7821L122.571 78.4286ZM114 80L113.63 79.6637C113.497 79.8101 113.463 80.0213 113.543 80.2023C113.623 80.3833 113.802 80.5 114 80.5V80ZM128 80V80.5C128.202 80.5 128.385 80.3782 128.462 80.1913C128.539 80.0045 128.497 79.7894 128.354 79.6464L128 80ZM124.5 76.5L124.854 76.1464C124.658 75.9512 124.342 75.9512 124.146 76.1464L124.5 76.5ZM118.63 74.8363L122.201 78.7649L122.941 78.0922L119.37 74.1637L118.63 74.8363ZM114.37 80.3363L119.37 74.8363L118.63 74.1637L113.63 79.6637L114.37 80.3363ZM121 79.5H114V80.5H121V79.5ZM124 79.5H121V80.5H124V79.5ZM128 79.5H124V80.5H128V79.5ZM124.146 76.8536L127.646 80.3536L128.354 79.6464L124.854 76.1464L124.146 76.8536ZM122.925 78.7821L124.854 76.8536L124.146 76.1464L122.218 78.075L122.925 78.7821Z" fill="#FA1BFF"/>
<circle cx="122.5" cy="71" r="1.5" fill="#FA1BFF" stroke="#FA1BFF"/>
</svg>
